<?xml version="1.0" encoding="UTF-8"?>
<svg id="Layer_2" data-name="Layer 2" xmlns="http://www.w3.org/2000/svg" viewBox="0 0 125.49 56.88">
  <defs>
    <style>
      .cls-1, .cls-2 {
        stroke-width: 0px;
      }

      .cls-2 {
        fill: #fff;
      }
    </style>
  </defs>
  <g id="Layer_1-2" data-name="Layer 1">
    <g>
      <path class="cls-2" d="M125.49,56.88H0V0h125.49v56.88ZM99.3,53.19h22.55v-10.43c-1.05,0-1.95-.09-2.82.02-1.7.22-2.07-.54-2.05-2.11.07-7.65.03-15.31.04-22.96,0-.57.06-1.14.1-1.88h4.88c0-3.4.03-6.62-.05-9.83,0-.3-.79-.82-1.21-.82-8.03-.04-16.07-.07-24.1,0-2.57.03-3.13.63-3.63,3.19-1.27,6.46-2.5,12.93-3.76,19.4-.18.92-.46,1.82-.69,2.73-.2-.01-.39-.02-.59-.04-.19-.76-.41-1.52-.56-2.29-1.19-6.18-2.36-12.36-3.54-18.54-.79-4.14-1.19-4.48-5.48-4.49-6.62-.02-13.23,0-19.85,0q-4.56,0-4.56,4.53v6.28h5.17c0,8.68.02,17.15-.06,25.62,0,.4-.78,1.08-1.26,1.15-1.2.17-2.43.05-3.71.05v10.39h21.3v-10.31c-.49-.03-.84-.06-1.19-.07q-2.48-.05-2.48-2.52c0-6.42,0-12.84,0-19.25,0-.63.16-1.25.24-1.88.2,0,.39-.02.59-.02.4,1.61.82,3.21,1.2,4.83,2.04,8.76,4.06,17.53,6.1,26.3.6,2.57,1.24,3.06,3.91,3.06,2.3,0,4.61,0,6.91,0,3.08,0,3.6-.44,4.3-3.46,2.25-9.68,4.5-19.36,6.77-29.04.14-.6.46-1.16.69-1.73.15.03.3.07.46.1.07.43.2.86.2,1.3.01,6.89-.02,13.78.03,20.67.01,1.38-.52,1.78-1.78,1.66-.67-.07-1.36-.01-2.09-.01v10.43ZM15.57,24.26c0-1.68,0-3.15,0-4.61,0-4.41,0-4.38,4.48-4.23,1.02.03,1.5.29,1.5,1.4-.03,8.18-.03,16.36,0,24.55,0,1.08-.42,1.47-1.47,1.42-1.34-.06-2.68-.01-4.04-.01v10.42h24.95v-10.42c-1.27,0-2.44-.08-3.6.02-1.49.13-1.92-.46-1.91-1.91.06-7.12.03-14.24.03-21.37,0-4.13,0-4.05,4.09-4.12,1.63-.03,2.02.55,1.94,2.05-.11,2.26-.03,4.54-.03,6.78h10.71c.04-.64.1-1.16.1-1.68,0-5.18-.04-10.36.04-15.54.02-1.49-.5-1.93-1.94-1.9-3.48.08-6.97.02-10.45.02-10.98,0-21.97,0-32.95,0-2.27,0-2.27,0-2.27,2.34,0,4.94,0,9.89,0,14.83,0,.63,0,1.26,0,1.96h10.83Z"/>
      <path class="cls-1" d="M99.3,53.19v-10.43c.73,0,1.42-.05,2.09.01,1.26.12,1.79-.28,1.78-1.66-.06-6.89-.02-13.78-.03-20.67,0-.43-.13-.86-.2-1.3-.15-.03-.3-.07-.46-.1-.23.58-.55,1.13-.69,1.73-2.27,9.68-4.53,19.35-6.77,29.04-.7,3.02-1.22,3.46-4.3,3.46-2.3,0-4.61,0-6.91,0-2.67,0-3.32-.5-3.91-3.06-2.04-8.76-4.06-17.53-6.1-26.3-.38-1.62-.8-3.22-1.2-4.83-.2,0-.39.02-.59.02-.08.63-.24,1.25-.24,1.88-.02,6.42-.01,12.84,0,19.25q0,2.47,2.48,2.52c.35,0,.69.04,1.19.07v10.31h-21.3v-10.39c1.28,0,2.52.11,3.71-.05.48-.07,1.26-.74,1.26-1.15.07-8.47.06-16.94.06-25.62h-5.17v-6.28q0-4.53,4.56-4.53c6.62,0,13.23-.01,19.85,0,4.29,0,4.68.35,5.48,4.49,1.18,6.18,2.35,12.36,3.54,18.54.15.77.37,1.53.56,2.29.2.01.39.02.59.04.23-.91.51-1.81.69-2.73,1.26-6.46,2.49-12.93,3.76-19.4.5-2.56,1.06-3.16,3.63-3.19,8.03-.08,16.07-.05,24.1,0,.42,0,1.2.52,1.21.82.09,3.22.05,6.44.05,9.83h-4.88c-.04.74-.1,1.31-.1,1.88,0,7.65.03,15.31-.04,22.96-.01,1.57.36,2.32,2.05,2.11.87-.11,1.76-.02,2.82-.02v10.43h-22.55Z"/>
      <path class="cls-1" d="M15.57,24.26H4.73c0-.69,0-1.33,0-1.96,0-4.94,0-9.89,0-14.83,0-2.33,0-2.33,2.27-2.34,10.98,0,21.97,0,32.95,0,3.48,0,6.97.05,10.45-.02,1.44-.03,1.96.4,1.94,1.9-.08,5.18-.03,10.36-.04,15.54,0,.52-.06,1.04-.1,1.68h-10.71c0-2.24-.08-4.52.03-6.78.07-1.5-.31-2.08-1.94-2.05-4.09.07-4.09,0-4.09,4.12,0,7.12.03,14.25-.03,21.37-.01,1.45.42,2.04,1.91,1.91,1.16-.1,2.33-.02,3.6-.02v10.42h-24.95v-10.42c1.37,0,2.71-.04,4.04.01,1.06.05,1.48-.34,1.47-1.42-.02-8.18-.03-16.36,0-24.55,0-1.11-.48-1.37-1.5-1.4-4.48-.15-4.48-.18-4.48,4.23,0,1.47,0,2.93,0,4.61Z"/>
    </g>
  </g>
</svg>