<?xml version="1.0" encoding="utf-8"?>
<!-- Generator: Adobe Illustrator 28.1.0, SVG Export Plug-In . SVG Version: 6.00 Build 0)  -->
<svg version="1.1" xmlns="http://www.w3.org/2000/svg" xmlns:xlink="http://www.w3.org/1999/xlink" x="0px" y="0px"
	 viewBox="0 0 219 282.9" style="enable-background:new 0 0 219 282.9;" xml:space="preserve">
<style type="text/css">
	.st0{fill:#FFFFFF;stroke:#FFFFFF;stroke-width:4;stroke-dasharray:800;stroke-dashoffset:800;}
	.st1{fill:#FFFFFF;}
</style>
<g id="Hex1">
	<path class="st0" d="M36.3,40l64-37c2.5-1.4,5.5-1.4,8,0l64,37c2.5,1.4,4,4.1,4,6.9v74c0,2.9-1.5,5.5-4,6.9l-64,37
		c-2.5,1.4-5.5,1.4-8,0l-64-37c-2.5-1.4-4-4.1-4-6.9V47C32.3,44.1,33.9,41.5,36.3,40z"/>
</g>
<g id="TyMull">
	<g>
		<path class="st1" d="M93.5,212.9c-0.2-0.5,0-1.4,0.5-1.3c1.5,0.1-18.2-1.5-45.7,1.9l-7.5,22c-0.4,6.3-2.9,14.1-8,23.4
			c-0.3,0.5-0.9,0.7-1.4,0.4c-0.4-0.2-0.6-0.7-0.5-1.2l7.9-23c0-0.2,0-0.5,0-0.7c0.1-5-1.2-8.9-3.7-11.7c-2.5-2.9-6.1-4.7-10.6-5.6
			c-0.9-0.2-1.9-0.3-2.9-0.4c-11.9,1.5-20.4,2.6-20.5,2.6c-0.5,0.1-1.1-0.3-1.1-0.9c-0.1-0.5,0.2-1,0.7-1.1c7.8-2.3,15-3.2,21.1-2.6
			c6.7-0.8,14.5-1.7,22.5-2.5c1.2-1.9,3.6-3.9,3.9-4.2c0.3-0.2,0.6-0.3,1-0.2c0.5,0.2,0.8,0.8,0.6,1.3l-0.9,2.7
			c30.4-3.1,61.3-5,45.9,1.8C94.3,213.6,93.7,213.4,93.5,212.9z M27.9,215.8c3.5,1.1,6.5,2.9,8.7,5.5c2,2.3,3.3,5.2,3.9,8.6
			l5.2-15.3c-0.3,0.3-0.7,0.4-1.1,0.3c-0.6-0.2-0.9-0.6-1-1C38.3,214.5,32.9,215.2,27.9,215.8z M46,213.7c0,0.1,0,0.2,0,0.2l0.1-0.3
			L46,213.7z M46.7,211.8L46.7,211.8L46.7,211.8L46.7,211.8z"/>
		<path class="st1" d="M51.9,237.1c0.4,0.3,0.5,1,0.2,1.4c-1.9,2.6-3.3,5-3.7,6.7c-0.1,0.4-0.1,0.8-0.1,1v0c0.3,0,0.8-0.1,1.5-0.4
			c4.6-2.1,11.1-11.1,11.1-11.1c0.3-0.4,1-0.5,1.4-0.2c0.4,0.3,0.5,0.8,0.3,1.2c-0.9,2.7-1.7,5.2-2.6,7.6c2.1-1.2,4.4-2.4,6.7-3.5
			c0.5-0.2,1.1,0,1.3,0.4c0.2,0.5,0,1.1-0.5,1.3c-3.1,1.6-6,3.1-8.7,4.7c-7.7,19.8-16.2,30.3-22.5,34.5c-3.9,2.6-7.2,2.8-9,1.2
			c-1.8-1.6-2.1-4.9-0.2-9.2c3-7,12-17.3,30.1-27.9c0.6-1.4,1.1-2.9,1.6-4.5c-2.4,2.8-5.6,6.1-8.4,7.3c-1.1,0.5-2,0.7-2.6,0.5
			c-0.8-0.1-1.4-0.6-1.6-1.4c-0.2-0.6-0.2-1.2,0-2c0.4-1.9,2-4.7,4-7.4C50.8,236.9,51.4,236.8,51.9,237.1z M56.2,247.8
			C40,257.6,31.8,267,29.1,273.5c-1.5,3.4-1.4,5.9-0.3,6.9c1.1,1,3.5,0.7,6.6-1.3C41.1,275.2,48.9,265.6,56.2,247.8z M48.3,246.2
			C48.3,246.2,48.3,246.2,48.3,246.2L48.3,246.2z"/>
		<path class="st1" d="M65,250.4c0.4,0.5,0.3,1.2-0.1,1.6c0,0-11.6,9.9-1.4,6.2c6.7-2.4,26.4-14.9,45.4-26.9
			c21-13.3,41.1-26,43.3-24.1c0.9,0.8,0.5,2.2-1.4,4.3c-13.6,15.8-20.4,25.5-22.5,30.3c-0.6,1.5-0.8,2.2-0.6,2.4
			c0.2,0.2,0.9-0.1,2.1-0.6c4-1.9,11.1-7.6,19.4-15.9c3.8-3.8,5.7-4.8,6.7-3.9c0.9,0.9,0.2,2.9-0.7,5.5c-1.2,3.8-3,9.2-1.8,12.6
			c1.2,3.3,5.5,4.8,17.1,0.7c0.6-0.2,1.2,0.1,1.4,0.7c0.2,0.6-0.1,1.2-0.7,1.4c-13.2,4.6-18.3,2.4-19.9-2.1c-1.4-4.1,0.5-9.9,1.8-14
			c0.6-1.9,1.3-3.2,1.2-3.3c-0.1-0.1-0.8,1.2-3.6,3.9c-8.5,8.5-15.9,14.3-20.1,16.3c-2.1,1-3.6,1.1-4.5,0.2
			c-0.9-0.8-0.9-2.4,0.1-4.8c2.1-5,9.1-14.9,22.8-30.9c0.9-1,1.8-1.1,1.6-1.2c-1-0.9-20.4,11.5-40.7,24.3
			c-19.1,12.1-38.9,24.6-45.9,27.1c-21.5,7.7-0.8-9.9-0.8-9.9C63.9,249.9,64.6,250,65,250.4z"/>
		<path class="st1" d="M176,236.4c0.5,0.3,0.6,0.9,0.3,1.4c0,0-3.9,5.2-4.3,6.9c0,0,3.7-1.8,8.1-6c0.4-0.4,1-0.3,1.4,0.1
			c0.3,0.3,0.3,0.8,0.1,1.2c-4.1,6.8-1.7,6.5,2.5,0c0.3-0.4,1-0.5,1.4-0.2c0.4,0.3,0.5,1,0.2,1.4c-1.4,1.8-2.7,3.4-3.8,4.4
			c-1.3,1.2-2.4,1.7-3.2,1.3c-1.3-0.7-1.3-2.3-0.8-3.8c-3.5,2.7-8.4,6-8.2,3.2c0.1-2.2,5-9.6,5-9.6
			C174.9,236.2,175.5,236.1,176,236.4z"/>
		<path class="st1" d="M185.6,241.3L185.6,241.3c-0.8,3.6-0.9,6.2,0,7c0.3,0.2,0.8,0.2,1.5-0.1c0.5-0.2,1.1-0.5,1.7-0.9
			c3.2-1.9,7.1-5.7,11-10.2c1.4-3.5,3.1-7.1,4.9-10.6c4.7-9,9.9-16.8,12-18c0.9-0.5,1.6-0.4,2.1,0.4c0,0.1,0.1,0.2,0.1,0.2
			c0.9,2.2-3.6,10.6-9.7,19.2c-2.4,3.3-5,6.7-7.7,9.8c-2.2,5.4-3.6,10.4-3.7,14.1c0,3,1,4.9,3.6,4.9c0.6,0,1,0.5,1,1
			c0,0.6-0.5,1-1,1c-4,0-5.6-2.7-5.6-6.9c0-2.8,0.8-6.3,2.1-10.1c-2.9,3-5.7,5.5-8.1,6.9c-0.7,0.4-1.3,0.7-2,1
			c-1.6,0.6-2.8,0.5-3.7-0.4c-1.4-1.4-1.4-4.7-0.5-8.8c0.8-3.9,2.4-8.6,4.2-13.1c3.7-9.1,8.6-17.4,10.7-16.8
			c0.3,0.1,0.6,0.2,0.9,0.5c0.6,0.5,1,1.5,1.2,2.8c0.1,1.2,0,2.8-0.5,4.8c-1.3,4.8-5.2,12.1-14.1,22
			C185.8,241.1,185.7,241.2,185.6,241.3z M198.1,218.5c0.5-1.7,0.6-3.1,0.5-4c-0.1-0.8-0.3-1.3-0.5-1.6c0,0,0,0,0,0
			c-1.1-0.3-5,7.4-8.4,15.7c-1.2,2.9-2.2,5.9-3,8.7C193.8,228.9,197,222.7,198.1,218.5z M207.6,227.3c5-7.1,9-13.8,9.5-16.4
			c-2.2,2.1-6.5,8.9-10.6,16.7c-0.6,1.2-1.2,2.5-1.9,3.7C205.6,230,206.6,228.6,207.6,227.3z"/>
	</g>
</g>
<g id="T">
	<path class="st1" d="M69.5,69.6H58.6c0-0.7,0-1.3,0-2c0-4.9,0-9.9,0-14.8c0-2.3,0-2.3,2.3-2.3c11,0,22,0,33,0c3.5,0,7,0.1,10.4,0
		c1.4,0,2,0.4,1.9,1.9c-0.1,5.2,0,10.4,0,15.5c0,0.5-0.1,1-0.1,1.7H95.4c0-2.2-0.1-4.5,0-6.8c0.1-1.5-0.3-2.1-1.9-2
		c-4.1,0.1-4.1,0-4.1,4.1c0,7.1,0,14.2,0,21.4c0,1.5,0.4,2,1.9,1.9c1.2-0.1,2.3,0,3.6,0v10.4H69.9V88.1c1.4,0,2.7,0,4,0
		c1.1,0,1.5-0.3,1.5-1.4c0-8.2,0-16.4,0-24.6c0-1.1-0.5-1.4-1.5-1.4c-4.5-0.1-4.5-0.2-4.5,4.2C69.4,66.5,69.4,67.9,69.5,69.6
		L69.5,69.6z"/>
</g>
<g id="M">
	<path class="st1" d="M140.2,121.8v-10.4c0.7,0,1.4,0,2.1,0c1.3,0.1,1.8-0.3,1.8-1.7c-0.1-6.9,0-13.8,0-20.7c0-0.4-0.1-0.9-0.2-1.3
		c-0.2,0-0.3-0.1-0.5-0.1c-0.2,0.6-0.6,1.1-0.7,1.7c-2.3,9.7-4.5,19.3-6.8,29c-0.7,3-1.2,3.5-4.3,3.5c-2.3,0-4.6,0-6.9,0
		c-2.7,0-3.3-0.5-3.9-3.1c-2-8.8-4.1-17.5-6.1-26.3c-0.4-1.6-0.8-3.2-1.2-4.8c-0.2,0-0.4,0-0.6,0c-0.1,0.6-0.2,1.2-0.2,1.9
		c0,6.4,0,12.8,0,19.2c0,1.6,0.8,2.5,2.5,2.5c0.3,0,0.7,0,1.2,0.1v10.3H95v-10.4c1.3,0,2.5,0.1,3.7-0.1c0.5-0.1,1.3-0.7,1.3-1.2
		c0.1-8.5,0.1-16.9,0.1-25.6h-5.2v-6.3c0-3,1.5-4.5,4.6-4.5c6.6,0,13.2,0,19.8,0c4.3,0,4.7,0.3,5.5,4.5c1.2,6.2,2.3,12.4,3.5,18.5
		c0.2,0.8,0.4,1.5,0.6,2.3c0.2,0,0.4,0,0.6,0c0.2-0.9,0.5-1.8,0.7-2.7c1.3-6.5,2.5-12.9,3.8-19.4c0.5-2.6,1.1-3.2,3.6-3.2
		c8-0.1,16.1,0,24.1,0c0.4,0,1.2,0.5,1.2,0.8c0.1,3.2,0.1,6.4,0.1,9.8H158c0,0.7-0.1,1.3-0.1,1.9c0,7.6,0,15.3,0,23
		c0,1.6,0.4,2.3,2.1,2.1c0.9-0.1,1.8,0,2.8,0v10.4L140.2,121.8L140.2,121.8z"/>
</g>
<g id="Hex2">
	<path class="st0" d="M180.6,130.5l-64,37c-2.5,1.4-5.5,1.4-8,0l-64-37c-2.5-1.4-4-4.1-4-6.9v-74c0-2.9,1.5-5.5,4-6.9l64-37
		c2.5-1.4,5.5-1.4,8,0l64,37c2.5,1.4,4,4.1,4,6.9v74C184.6,126.4,183.1,129.1,180.6,130.5z"/>
</g>
</svg>
